<?xml version="1.0" standalone="no"?>
<!DOCTYPE svg PUBLIC "-//W3C//DTD SVG 20010904//EN"
 "http://www.w3.org/TR/2001/REC-SVG-20010904/DTD/svg10.dtd">
<svg version="1.0" xmlns="http://www.w3.org/2000/svg"
 width="700.000000pt" height="700.000000pt" viewBox="0 0 700.000000 700.000000"
 preserveAspectRatio="xMidYMid meet">
<metadata>
Created by potrace 1.14, written by Peter Selinger 2001-2017
</metadata>
<g transform="translate(0.000000,700.000000) scale(0.100000,-0.100000)"
fill="#000000" stroke="none">
<path d="M1774 5930 c-6 -17 -161 -496 -224 -695 -22 -71 -47 -148 -55 -170
-7 -22 -52 -159 -99 -305 -46 -146 -120 -373 -162 -505 -43 -132 -79 -242 -79
-245 -1 -8 -124 -389 -149 -465 -13 -38 -56 -171 -96 -295 -72 -227 -261 -813
-305 -947 l-24 -73 274 0 274 0 9 32 c12 42 102 351 198 676 41 139 74 254 74
257 0 2 308 4 684 4 l684 0 26 -82 c40 -130 67 -221 71 -237 2 -8 43 -145 90
-305 48 -159 90 -301 94 -315 l7 -25 272 -3 c153 -1 272 2 272 7 0 4 -13 48
-29 97 -16 49 -61 190 -101 314 -40 124 -85 263 -100 310 -15 47 -60 186 -100
310 -39 124 -80 250 -90 280 -10 30 -36 111 -58 180 -22 69 -82 253 -132 410
-50 157 -134 418 -186 580 -52 162 -101 313 -109 335 -7 22 -31 96 -53 165
-22 69 -77 240 -122 380 -45 140 -88 275 -96 300 l-15 45 -319 0 c-276 0 -321
-2 -326 -15z m358 -545 c15 -49 43 -146 63 -215 20 -69 61 -210 91 -315 31
-104 64 -217 74 -250 10 -33 49 -163 85 -290 37 -126 98 -336 136 -464 38
-129 69 -238 69 -242 0 -7 -1089 -11 -1101 -3 -4 2 0 25 8 51 8 27 43 149 79
273 36 124 90 306 119 405 29 99 79 268 110 375 32 107 82 278 112 380 30 102
68 234 85 293 17 60 34 105 38 100 4 -4 18 -48 32 -98z"/>
<path d="M4667 5084 c-1 -2 -25 -5 -52 -9 -142 -16 -277 -100 -373 -230 -24
-33 -45 -61 -45 -62 -1 -1 -2 51 -2 115 l0 117 -217 0 -218 1 0 -1393 0 -1393
218 2 217 3 1 870 c1 995 5 1129 39 1312 19 103 36 143 83 195 48 53 106 78
196 85 170 13 283 -66 320 -224 42 -181 45 -273 45 -1385 l1 -858 220 0 220 0
1 893 c0 885 2 1021 14 1127 3 30 8 75 11 100 8 75 43 188 70 230 66 99 237
147 372 104 108 -35 165 -124 187 -289 3 -22 7 -55 10 -73 14 -104 18 -338 20
-1162 2 -503 3 -918 4 -922 0 -5 97 -8 215 -8 162 0 215 3 218 13 2 6 4 412 3
902 -2 786 -7 1115 -20 1165 -2 8 -7 44 -10 80 -9 93 -53 285 -81 354 -104
256 -328 372 -641 332 -171 -23 -329 -130 -415 -284 -26 -45 -48 -60 -48 -32
0 20 -65 117 -109 163 -102 107 -214 151 -407 161 -24 1 -45 1 -47 0z"/>
<path d="M701 2080 c-49 -220 -106 -484 -117 -539 -3 -13 -11 -50 -19 -83 -7
-32 -10 -59 -7 -60 4 0 30 -2 59 -3 l52 -1 12 70 c19 115 16 111 98 110 39 0
73 -3 76 -5 2 -3 12 -43 22 -90 l18 -84 55 0 c42 1 55 4 54 15 -1 8 -34 164
-73 345 -40 182 -73 338 -74 348 -1 9 -6 17 -12 18 -5 0 -38 1 -72 2 l-62 2
-10 -45z m85 -123 c1 -7 9 -50 18 -97 10 -47 20 -104 23 -127 l5 -43 -52 0
-53 0 6 43 c8 51 16 95 22 123 7 31 18 97 18 112 0 14 10 7 13 -11z"/>
<path d="M1374 2121 c-2 -2 -4 -167 -4 -365 l0 -361 50 -2 50 -1 1 262 c0 155
4 251 9 236 5 -14 27 -86 50 -160 23 -74 56 -180 73 -235 l32 -100 58 -1 c31
-1 58 1 59 5 0 3 2 167 3 364 1 318 0 357 -14 358 -51 4 -67 4 -76 -3 -7 -4
-10 -97 -10 -252 0 -135 -3 -242 -6 -238 -4 4 -23 61 -44 127 -20 66 -54 176
-75 245 l-39 125 -56 0 c-31 0 -59 -2 -61 -4z"/>
<path d="M2114 2119 c-2 -4 5 -29 17 -56 11 -26 51 -124 89 -218 l69 -170 -1
-140 -1 -140 58 0 59 0 1 150 2 150 80 195 c45 107 83 204 85 214 3 17 -3 20
-54 20 l-58 1 -50 -128 c-27 -70 -50 -132 -50 -137 0 -5 -4 -11 -9 -14 -5 -4
-32 54 -61 126 -28 73 -55 137 -61 143 -11 11 -108 14 -115 4z"/>
<path d="M2931 2122 c-8 -3 -11 -107 -11 -366 l0 -362 50 0 50 -1 1 281 1 281
24 -115 c13 -63 26 -124 28 -135 3 -11 5 -26 5 -32 1 -9 18 -13 50 -13 l48 0
24 135 c13 74 26 135 29 135 3 0 6 -120 6 -267 l0 -268 39 -1 c22 -1 45 1 50
3 7 2 10 132 10 365 l0 362 -63 1 c-35 0 -67 -2 -71 -5 -4 -3 -13 -32 -20 -65
-6 -33 -21 -103 -33 -155 l-21 -95 -33 154 c-18 84 -36 156 -38 159 -6 6 -109
9 -125 4z"/>
<path d="M3840 2123 c0 -1 -16 -73 -34 -160 -19 -88 -37 -170 -40 -184 -5 -28
-35 -166 -42 -191 -15 -64 -38 -182 -36 -188 1 -3 25 -5 53 -6 59 -1 61 2 78
104 7 39 18 72 24 73 48 4 130 3 137 -1 5 -3 16 -41 25 -84 8 -44 18 -82 20
-86 3 -5 106 -7 111 -1 1 0 -9 51 -22 112 -13 61 -26 124 -29 141 -3 17 -7 34
-9 37 -2 3 -7 24 -10 46 -4 22 -13 64 -20 95 -8 30 -24 105 -36 165 -13 61
-27 114 -31 119 -7 8 -139 16 -139 9z m96 -268 c9 -44 18 -99 21 -122 l5 -41
-51 0 c-33 -1 -51 3 -51 11 0 11 37 213 45 247 8 32 6 38 31 -95z"/>
<path d="M4491 2106 c-4 -10 -6 -28 -5 -40 1 -11 3 -32 3 -46 1 -24 3 -25 74
-24 l72 2 0 -299 c0 -165 2 -300 5 -300 3 -1 29 -3 58 -4 l52 -2 0 302 0 303
53 0 c105 0 97 -5 97 62 0 41 -4 60 -12 61 -7 1 -98 2 -202 2 -176 2 -189 1
-195 -17z"/>
<path d="M5274 2121 c-2 -2 -4 -31 -4 -63 0 -44 3 -58 15 -59 8 0 42 -1 74 -2
l60 -1 0 -275 c0 -152 1 -288 1 -302 0 -25 2 -26 55 -26 31 1 55 5 56 11 1 6
2 137 3 291 2 154 4 285 4 292 1 8 21 12 60 11 92 -1 87 -5 87 62 0 33 -2 60
-5 61 -19 3 -403 3 -406 0z"/>
<path d="M6085 2120 c-1 -3 -2 -167 -1 -365 l1 -360 182 -1 182 0 -1 63 -1 63
-56 1 c-31 0 -86 0 -123 0 l-68 -1 0 98 0 97 112 0 112 0 0 60 1 60 -113 3
-112 3 0 77 0 78 113 -1 c61 0 118 1 124 3 13 4 17 121 4 123 -24 4 -353 3
-356 -1z"/>
</g>
</svg>
